<svg xmlns="http://www.w3.org/2000/svg" xmlns:xlink="http://www.w3.org/1999/xlink" width="60" height="60" viewBox="0 0 60 60">
  <defs>
    <clipPath id="clip-backtrack">
      <rect width="60" height="60"/>
    </clipPath>
  </defs>
  <g id="backtrack" clip-path="url(#clip-backtrack)">
    <rect width="60" height="60" fill="#fff"/>
    <g id="Component_4_1" data-name="Component 4 – 1" transform="translate(2 2)">
      <path id="Subtraction_2" data-name="Subtraction 2" d="M233-428a27.825,27.825,0,0,1-10.9-2.2,27.906,27.906,0,0,1-8.9-6,27.906,27.906,0,0,1-6-8.9A27.826,27.826,0,0,1,205-456a27.824,27.824,0,0,1,2.2-10.9,27.907,27.907,0,0,1,6-8.9,27.907,27.907,0,0,1,8.9-6A27.825,27.825,0,0,1,233-484a27.825,27.825,0,0,1,10.9,2.2,27.907,27.907,0,0,1,8.9,6,27.907,27.907,0,0,1,6,8.9A27.825,27.825,0,0,1,261-456a27.826,27.826,0,0,1-2.2,10.9,27.906,27.906,0,0,1-6,8.9,27.906,27.906,0,0,1-8.9,6A27.825,27.825,0,0,1,233-428Zm0-23.749h0l12.2,9.148a2.96,2.96,0,0,0,1.787.606A3.016,3.016,0,0,0,250-445v-21a3.015,3.015,0,0,0-3.012-3,2.962,2.962,0,0,0-1.788.605L233-459.25V-466a3.015,3.015,0,0,0-3.012-3,2.962,2.962,0,0,0-1.788.605l-14,10.5a2.976,2.976,0,0,0-1.2,2.4,2.976,2.976,0,0,0,1.2,2.4l14,10.5a2.963,2.963,0,0,0,1.788.606A3.015,3.015,0,0,0,233-445v-6.75Z" transform="translate(-205 484)" fill="#2d2d2d"/>
    </g>
  </g>
</svg>
