<svg id="btn_speaker" xmlns="http://www.w3.org/2000/svg" width="177" height="38" viewBox="0 0 177 38">
  <path id="Rectangle_12" data-name="Rectangle 12" d="M0,0H158a19,19,0,0,1,19,19v0a19,19,0,0,1-19,19H0a0,0,0,0,1,0,0V0A0,0,0,0,1,0,0Z" fill="#fff"/>
  <text id="SPEAKER" transform="translate(54 25)" fill="#2d2d2d" font-size="14" font-family="SegoeUI, Segoe UI"><tspan x="0" y="0">SPEAKER</tspan></text>
  <path id="Union_2" data-name="Union 2" d="M2.5,19.268v-6A4.354,4.354,0,0,1,4.352,4.974h6.68L16.9,2.162V1.878a1.878,1.878,0,1,1,3.756,0V7.462h.013a1.865,1.865,0,1,1,0,3.73h-.013v5.585a1.878,1.878,0,0,1-3.756,0v-.34L11.147,13.68H5.008v5.588a1.252,1.252,0,0,1-2.5,0Zm22.844-4.175-3.037-1.416a.934.934,0,0,1,.789-1.693L26.137,13.4a.934.934,0,0,1-.789,1.693Zm-.639-5.017a.932.932,0,1,1,0-1.865h3.358a.932.932,0,1,1,0,1.865ZM21.866,6.232a.933.933,0,0,1,.452-1.241l3.036-1.416a.934.934,0,1,1,.789,1.692L23.107,6.683a.932.932,0,0,1-1.241-.451Z" transform="translate(15.391 8.48)" fill="#2d2d2d"/>
</svg>
