<svg id="btn_timer" xmlns="http://www.w3.org/2000/svg" width="167" height="38" viewBox="0 0 167 38">
  <path id="Rectangle_12" data-name="Rectangle 12" d="M0,0H148a19,19,0,0,1,19,19v0a19,19,0,0,1-19,19H0a0,0,0,0,1,0,0V0A0,0,0,0,1,0,0Z" fill="#fff"/>
  <text id="TIMER" transform="translate(59 25)" fill="#2d2d2d" font-size="14" font-family="SegoeUI, Segoe UI"><tspan x="0" y="0">TIMER</tspan></text>
  <g id="Component_44_3" data-name="Component 44 – 3" transform="translate(10 2)">
    <g id="Group_131" data-name="Group 131" transform="translate(0 0)">
      <path id="Subtraction_18" data-name="Subtraction 18" d="M29,34H5a5.006,5.006,0,0,1-5-5V5A5.006,5.006,0,0,1,5,0H29a5.006,5.006,0,0,1,5,5V29A5.006,5.006,0,0,1,29,34ZM5.6,2.373A3.039,3.039,0,0,0,2.567,5.409V28.591a3.036,3.036,0,1,0,6.071,0V5.409A3.039,3.039,0,0,0,5.6,2.373Zm15.952,3.7A10.631,10.631,0,1,0,32.179,16.7c0-.092,0-.191,0-.3A10.62,10.62,0,0,0,21.569,6.071h-.014Zm0,19.353a8.728,8.728,0,0,1-.3-17.45V9.89c.1-.005.2-.007.319-.007a6.818,6.818,0,0,1,6.826,6.51h1.882c0,.115.005.214.005.3A8.737,8.737,0,0,1,21.554,25.424Zm2-12.755a2.3,2.3,0,0,0-1.115.266,2.224,2.224,0,0,0-.814.789,4.132,4.132,0,0,0-.5,1.3,8.464,8.464,0,0,0-.169,1.784,7.473,7.473,0,0,0,.161,1.63,3.818,3.818,0,0,0,.472,1.2,2.18,2.18,0,0,0,.766.743,2.082,2.082,0,0,0,1.034.256,2.229,2.229,0,0,0,1.093-.266,2.267,2.267,0,0,0,.811-.778,4,4,0,0,0,.5-1.259,7.569,7.569,0,0,0,.175-1.714C25.979,14,25.165,12.669,23.558,12.669ZM17.58,13.845V20.5h.88V12.626h-.333a4.845,4.845,0,0,1-.483.363c-.184.122-.384.241-.593.354s-.419.213-.64.307a5.05,5.05,0,0,1-.615.217v.892a3.755,3.755,0,0,0,.529-.177c.175-.072.348-.153.516-.241a4.793,4.793,0,0,0,.44-.261,2,2,0,0,0,.3-.232Zm5.9,6.037c-1.073,0-1.616-1.05-1.616-3.12,0-2.22.555-3.346,1.649-3.346,1.037,0,1.563,1.106,1.563,3.287C25.078,18.812,24.541,19.882,23.482,19.882Z" transform="translate(0)" fill="#2d2d2d"/>
      <g id="Group_129" data-name="Group 129" transform="translate(35 2)">
        <circle id="Ellipse_27" data-name="Ellipse 27" cx="4" cy="4" r="4" transform="translate(0)" fill="#2d2d2d"/>
        <path id="Subtraction_14" data-name="Subtraction 14" d="M4,8a4,4,0,0,1-2.038-.557L7.443,1.962A4,4,0,0,1,4,8ZM.416,5.779h0A3.96,3.96,0,0,1,0,4,4,4,0,0,1,4,0,3.96,3.96,0,0,1,5.779.416L.417,5.778Z" transform="translate(0 22)" fill="#2d2d2d"/>
      </g>
    </g>
  </g>
</svg>
