<svg id="btn_bucket_Hover_State_" data-name="btn_bucket (Hover State)" xmlns="http://www.w3.org/2000/svg" width="177" height="38" viewBox="0 0 177 38">
  <path id="Rectangle_12" data-name="Rectangle 12" d="M0,0H158a19,19,0,0,1,19,19v0a19,19,0,0,1-19,19H0a0,0,0,0,1,0,0V0A0,0,0,0,1,0,0Z" fill="#36afce"/>
  <text id="BUCKET" transform="translate(56 25)" fill="#fff" font-size="14" font-family="SegoeUI, Segoe UI"><tspan x="0" y="0">BUCKET</tspan></text>
  <path id="Subtraction_10" data-name="Subtraction 10" d="M10.849,27.256a13.127,13.127,0,0,1-4.461-.948,17.287,17.287,0,0,1-2.077-.948L.1,10.28A.93.93,0,0,1,0,9.915L0,9.91c0-.01,0-.02,0-.03V9.866a.828.828,0,0,1,.009-.125C0,9.608,0,9.475,0,9.346A8.762,8.762,0,0,1,3.109,2.737,11.315,11.315,0,0,1,10.616,0a11.316,11.316,0,0,1,7.507,2.737,8.762,8.762,0,0,1,3.109,6.609c0,.131,0,.264-.009.395a.841.841,0,0,1,.009.125c0,.015,0,.03,0,.044v.006a.928.928,0,0,1-.1.353L17.028,25.359a13.857,13.857,0,0,1-1.9.948A11.661,11.661,0,0,1,10.849,27.256Zm-.232-18.87c-5.037,0-9.135.664-9.135,1.48s4.1,1.48,9.135,1.48,9.135-.664,9.135-1.48S15.653,8.386,10.616,8.386Zm.219-2c5.662,0,8.007.777,8.03.785a7.7,7.7,0,0,0-1.614-2.609,8.408,8.408,0,0,0-6.416-2.609,9.033,9.033,0,0,0-6.6,2.609,8.451,8.451,0,0,0-1.8,2.609l0,0A33.943,33.943,0,0,1,10.835,6.39Z" transform="translate(16 5.372)" fill="#fff"/>
</svg>
