<svg id="btn_scale" xmlns="http://www.w3.org/2000/svg" width="177" height="38" viewBox="0 0 177 38">
  <g id="Group_43" data-name="Group 43" transform="translate(0 -122)">
    <path id="Rectangle_12" data-name="Rectangle 12" d="M0,0H158a19,19,0,0,1,19,19v0a19,19,0,0,1-19,19H0a0,0,0,0,1,0,0V0A0,0,0,0,1,0,0Z" transform="translate(0 122)" fill="#fff"/>
    <text id="SCALE" transform="translate(56 147)" fill="#2d2d2d" font-size="14" font-family="SegoeUI, Segoe UI"><tspan x="0" y="0">SCALE</tspan></text>
  </g>
  <g id="Group_87" data-name="Group 87" transform="translate(12 -1.391)">
    <path id="Path_12" data-name="Path 12" d="M-204.172,1376.782h10.11s-.555,4.412-5.038,4.412S-204.172,1376.782-204.172,1376.782Z" transform="translate(205.893 -1355.926)" fill="#2d2d2d"/>
    <path id="Path_13" data-name="Path 13" d="M-201.263,1365.57l3.555-8.392,3.581,8.392" transform="translate(204.486 -1346.684)" fill="none" stroke="#2d2d2d" stroke-linecap="round" stroke-linejoin="bevel" stroke-width="2"/>
    <path id="Path_14" data-name="Path 14" d="M-194.352,1356.92h10.289" transform="translate(200.657 -1345.802)" fill="none" stroke="#2d2d2d" stroke-width="2"/>
    <path id="Path_15" data-name="Path 15" d="M-180.354,1357.92v20.668h-4.113" transform="translate(196.361 -1347.863)" fill="none" stroke="#2d2d2d" stroke-width="2"/>
    <path id="Path_12-2" data-name="Path 12" d="M-194.062,1376.782h-10.11s.555,4.412,5.038,4.412S-194.062,1376.782-194.062,1376.782Z" transform="translate(224.079 -1355.926)" fill="#2d2d2d"/>
    <path id="Path_13-2" data-name="Path 13" d="M-194.127,1365.57l-3.555-8.392-3.581,8.392" transform="translate(222.643 -1346.684)" fill="none" stroke="#2d2d2d" stroke-linecap="round" stroke-linejoin="bevel" stroke-width="2"/>
    <path id="Path_14-2" data-name="Path 14" d="M-184.063,1356.92h-10.289" transform="translate(209.497 -1345.802)" fill="none" stroke="#2d2d2d" stroke-width="2"/>
    <path id="Path_15-2" data-name="Path 15" d="M-184.467,1357.92v20.668h4.113" transform="translate(200.198 -1347.863)" fill="none" stroke="#2d2d2d" stroke-width="2"/>
  </g>
</svg>
