<svg xmlns="http://www.w3.org/2000/svg" xmlns:xlink="http://www.w3.org/1999/xlink" width="75" height="60" viewBox="0 0 75 60">
  <defs>
    <clipPath id="clip-concept_iteration">
      <rect width="75" height="60"/>
    </clipPath>
  </defs>
  <g id="concept_iteration" clip-path="url(#clip-concept_iteration)">
    <rect width="75" height="60" fill="#fff"/>
    <g id="Group_138" data-name="Group 138">
      <path id="Subtraction_17" data-name="Subtraction 17" d="M255-1374H215a8.009,8.009,0,0,1-8-8v-40a8.009,8.009,0,0,1,8-8h40a8.009,8.009,0,0,1,8,8v40A8.009,8.009,0,0,1,255-1374Zm-38.772-52.091a5.006,5.006,0,0,0-5,5v38.182a5.006,5.006,0,0,0,5,5,5.006,5.006,0,0,0,5-5v-38.182A5.006,5.006,0,0,0,216.228-1426.091ZM242-1419a16.894,16.894,0,0,0-6.617,1.336,16.916,16.916,0,0,0-5.4,3.643,16.939,16.939,0,0,0-3.643,5.4A16.9,16.9,0,0,0,225-1402a16.9,16.9,0,0,0,1.337,6.618,16.938,16.938,0,0,0,3.643,5.4,16.939,16.939,0,0,0,5.4,3.643A16.894,16.894,0,0,0,242-1385a16.887,16.887,0,0,0,6.617-1.336,16.934,16.934,0,0,0,5.4-3.643,16.969,16.969,0,0,0,3.643-5.4A16.9,16.9,0,0,0,259-1402a17.18,17.18,0,0,0-.284-3.109l-2.962.684a14.1,14.1,0,0,1,.21,2.425A13.981,13.981,0,0,1,242-1388.035,13.98,13.98,0,0,1,228.037-1402,13.98,13.98,0,0,1,242-1415.964a13.881,13.881,0,0,1,7.985,2.506l.067-.015,1.8-2.385A16.891,16.891,0,0,0,242-1419Zm7.2,6.85a1.434,1.434,0,0,0-1.426,1.331,1.424,1.424,0,0,0,.348,1.04,1.422,1.422,0,0,0,.98.489l5.562.389c.034,0,.068,0,.1,0a1.418,1.418,0,0,0,1.015-.424,1.431,1.431,0,0,0,.572-1.048l.389-5.562a1.434,1.434,0,0,0-1.328-1.528c-.034,0-.068,0-.1,0a1.435,1.435,0,0,0-1.427,1.332l-.3,4.285-4.285-.3C249.269-1412.148,249.234-1412.149,249.2-1412.149Z" transform="translate(-205 1432)" fill="#2d2d2d"/>
      <g id="Group_128" data-name="Group 128" transform="translate(0 -3)">
        <circle id="Ellipse_27" data-name="Ellipse 27" cx="6.5" cy="6.5" r="6.5" transform="translate(60 8)" fill="#2d2d2d"/>
        <path id="Subtraction_14" data-name="Subtraction 14" d="M893.825,15.164a6.493,6.493,0,0,1-3.312-.906l8.906-8.906a6.5,6.5,0,0,1-5.594,9.812ZM888,11.555h0a6.435,6.435,0,0,1-.676-2.889,6.507,6.507,0,0,1,6.5-6.5,6.435,6.435,0,0,1,2.89.676L888,11.554Z" transform="translate(-827.325 42.836)" fill="#2d2d2d"/>
      </g>
    </g>
  </g>
</svg>
