<svg xmlns="http://www.w3.org/2000/svg" xmlns:xlink="http://www.w3.org/1999/xlink" width="60" height="60" viewBox="0 0 60 60">
  <defs>
    <clipPath id="clip-output">
      <rect width="60" height="60"/>
    </clipPath>
  </defs>
  <g id="output" clip-path="url(#clip-output)">
    <rect width="60" height="60" fill="#fff"/>
    <g id="Component_7_1" data-name="Component 7 – 1" transform="translate(2 15.785)">
      <path id="Union_4" data-name="Union 4" d="M232.569-675.569a14.216,14.216,0,0,1,14.215-14.216A14.216,14.216,0,0,1,261-675.569a14.216,14.216,0,0,1-14.215,14.215A14.216,14.216,0,0,1,232.569-675.569Zm-9.62,10.052a14.123,14.123,0,0,1-4.164-10.053,14.12,14.12,0,0,1,4.164-10.051A14.123,14.123,0,0,1,233-689.784a14.213,14.213,0,0,1,4.308.664,14.164,14.164,0,0,0-9.908,13.55,14.166,14.166,0,0,0,9.908,13.552,14.226,14.226,0,0,1-4.308.664A14.123,14.123,0,0,1,222.949-665.517Zm-13.785,0A14.125,14.125,0,0,1,205-675.57a14.123,14.123,0,0,1,4.163-10.051,14.125,14.125,0,0,1,10.052-4.163,14.213,14.213,0,0,1,4.308.664,14.164,14.164,0,0,0-9.908,13.55,14.166,14.166,0,0,0,9.908,13.552,14.23,14.23,0,0,1-4.308.664A14.125,14.125,0,0,1,209.164-665.517Z" transform="translate(-205 689.784)" fill="#2d2d2d"/>
    </g>
  </g>
</svg>
