<svg xmlns="http://www.w3.org/2000/svg" xmlns:xlink="http://www.w3.org/1999/xlink" width="60" height="60" viewBox="0 0 60 60">
  <defs>
    <clipPath id="clip-speaker">
      <rect width="60" height="60"/>
    </clipPath>
  </defs>
  <g id="speaker" clip-path="url(#clip-speaker)">
    <rect width="60" height="60" fill="#fff"/>
    <g id="Component_3_1" data-name="Component 3 – 1" transform="translate(2.019 9.471)">
      <path id="Union_2" data-name="Union 2" d="M209.868-357.592v-11.625a8,8,0,0,1-4.888-7.372V-377.7a8,8,0,0,1,8-8h13.534l11.458-5.527v-.583a3.666,3.666,0,0,1,3.666-3.666,3.666,3.666,0,0,1,3.666,3.666v11a3.666,3.666,0,0,1,3.666,3.666,3.665,3.665,0,0,1-3.666,3.666v11a3.665,3.665,0,0,1-3.666,3.666,3.666,3.666,0,0,1-3.666-3.666v-.691L226.74-368.59H214.756v11a2.444,2.444,0,0,1-2.444,2.443A2.443,2.443,0,0,1,209.868-357.592Zm44.594-8.243-5.919-2.761a1.831,1.831,0,0,1-.887-2.435,1.833,1.833,0,0,1,2.435-.887l5.919,2.76a1.831,1.831,0,0,1,.887,2.435,1.831,1.831,0,0,1-1.662,1.059A1.821,1.821,0,0,1,254.462-365.836Zm-1.238-9.837a1.833,1.833,0,0,1-1.833-1.833,1.833,1.833,0,0,1,1.833-1.832h6.531a1.833,1.833,0,0,1,1.833,1.832,1.833,1.833,0,0,1-1.833,1.833Zm-5.568-7.581a1.832,1.832,0,0,1,.887-2.435l5.919-2.76a1.832,1.832,0,0,1,2.436.887,1.833,1.833,0,0,1-.887,2.435l-5.919,2.76a1.821,1.821,0,0,1-.773.172A1.832,1.832,0,0,1,247.657-383.253Z" transform="translate(-204.98 395.472)" fill="#2d2d2d"/>
    </g>
  </g>
</svg>
