<svg id="btn_iteration" xmlns="http://www.w3.org/2000/svg" width="167" height="38" viewBox="0 0 167 38">
  <path id="Rectangle_12" data-name="Rectangle 12" d="M0,0H148a19,19,0,0,1,19,19v0a19,19,0,0,1-19,19H0a0,0,0,0,1,0,0V0A0,0,0,0,1,0,0Z" fill="#fff"/>
  <text id="ITERATION" transform="translate(58 25)" fill="#2d2d2d" font-size="14" font-family="SegoeUI, Segoe UI"><tspan x="0" y="0">ITERATION</tspan></text>
  <g id="Component_43_3" data-name="Component 43 – 3" transform="translate(10 2)">
    <path id="Subtraction_17" data-name="Subtraction 17" d="M29,34H5a5.006,5.006,0,0,1-5-5V5A5.006,5.006,0,0,1,5,0H29a5.006,5.006,0,0,1,5,5V29A5.006,5.006,0,0,1,29,34ZM5.6,2.373A3.039,3.039,0,0,0,2.567,5.409V28.591a3.036,3.036,0,1,0,6.071,0V5.409A3.039,3.039,0,0,0,5.6,2.373ZM21.25,6.679A10.327,10.327,0,1,0,31.571,17a10.409,10.409,0,0,0-.172-1.887l-1.8.415A8.479,8.479,0,1,1,21.25,8.522,8.427,8.427,0,0,1,26.1,10.044l.041-.01L27.23,8.586A10.253,10.253,0,0,0,21.25,6.679Zm-.307,6.737a1.754,1.754,0,0,1,.558.086,1.193,1.193,0,0,1,.75.7,1.6,1.6,0,0,1,.11.618,2.437,2.437,0,0,1-.072.6,1.97,1.97,0,0,1-.245.556,2.985,2.985,0,0,1-.454.548,6.375,6.375,0,0,1-.7.574c-.383.279-.712.536-.98.763a3.96,3.96,0,0,0-.647.677,2.272,2.272,0,0,0-.355.714,3.186,3.186,0,0,0-.107.87V20.5h4.753v-.79H19.718a1.667,1.667,0,0,1,.084-.55,1.485,1.485,0,0,1,.29-.478,3.955,3.955,0,0,1,.559-.513c.237-.185.538-.407.894-.661A7.676,7.676,0,0,0,22.3,16.9a3.364,3.364,0,0,0,.534-.628,2.563,2.563,0,0,0,.318-.7,3.069,3.069,0,0,0,.1-.827,2.211,2.211,0,0,0-.169-.887,1.855,1.855,0,0,0-.464-.65,2.013,2.013,0,0,0-.7-.4,2.7,2.7,0,0,0-.876-.137,2.939,2.939,0,0,0-1.12.19,2.661,2.661,0,0,0-.83.551v.946a3.2,3.2,0,0,1,.405-.382,2.939,2.939,0,0,1,.452-.3,2.4,2.4,0,0,1,.481-.193A1.847,1.847,0,0,1,20.943,13.415Zm4.68-2.578a.87.87,0,0,0-.06,1.737l3.377.236H29a.86.86,0,0,0,.618-.257.87.87,0,0,0,.347-.636L30.2,8.542a.871.871,0,0,0-.806-.928c-.021,0-.041,0-.061,0a.871.871,0,0,0-.867.808l-.182,2.6-2.6-.182C25.664,10.838,25.643,10.838,25.623,10.838Z" fill="#2d2d2d"/>
    <g id="Group_128" data-name="Group 128" transform="translate(36 2)">
      <circle id="Ellipse_27" data-name="Ellipse 27" cx="4" cy="4" r="4" transform="translate(0)" fill="#2d2d2d"/>
      <path id="Subtraction_14" data-name="Subtraction 14" d="M4,8a4,4,0,0,1-2.038-.557L7.443,1.962A4,4,0,0,1,4,8ZM.416,5.779h0A3.96,3.96,0,0,1,0,4,4,4,0,0,1,4,0,3.96,3.96,0,0,1,5.779.416L.417,5.778Z" transform="translate(0 22)" fill="#2d2d2d"/>
    </g>
  </g>
</svg>
