<svg id="btn_treasure" xmlns="http://www.w3.org/2000/svg" width="177" height="38" viewBox="0 0 177 38">
  <path id="Rectangle_12" data-name="Rectangle 12" d="M0,0H158a19,19,0,0,1,19,19v0a19,19,0,0,1-19,19H0a0,0,0,0,1,0,0V0A0,0,0,0,1,0,0Z" fill="#fff"/>
  <text id="TREASURE" transform="translate(54 25)" fill="#2d2d2d" font-size="14" font-family="SegoeUI, Segoe UI"><tspan x="0" y="0">TREASURE</tspan></text>
  <g id="Component_5_2" data-name="Component 5 – 2" transform="translate(15.831 4.416)">
    <path id="Subtraction_3" data-name="Subtraction 3" d="M15.5,28.368h0V18.535L26,13.2v9.917l-10.5,5.25Zm-1.25,0h0L0,20.868V11.2l5.07,2.579v2l4,1.984.048-1.929,5.135,2.612v9.916Zm0-11.583h0L9.155,14.268l.019-.768-4.1-1.947v.7L.08,9.785V9.779A20.112,20.112,0,0,1,.659,7.227,12.637,12.637,0,0,1,2.832,2.795C4.9.363,6.806,0,7.759,0A3.414,3.414,0,0,1,8.4.058C9.68.3,21.552,6.357,21.672,6.418a9.712,9.712,0,0,0-1.757.729,10.22,10.22,0,0,0-3.248,2.638,12.123,12.123,0,0,0-1.959,4.424,18.853,18.853,0,0,0-.457,2.575Zm1.411-.038h0a25.4,25.4,0,0,1,1.6-5.309,8.282,8.282,0,0,1,2.341-2.484A6.12,6.12,0,0,1,23,7.653a3.291,3.291,0,0,1,.366.02,1.981,1.981,0,0,1,1.357.793,4.321,4.321,0,0,1,.711,1.487,8.974,8.974,0,0,1,.318,2.083L15.662,16.747Z" fill="#2d2d2d"/>
  </g>
</svg>
