<svg xmlns="http://www.w3.org/2000/svg" xmlns:xlink="http://www.w3.org/1999/xlink" width="60" height="60" viewBox="0 0 60 60">
  <defs>
    <clipPath id="clip-bucket">
      <rect width="60" height="60"/>
    </clipPath>
  </defs>
  <g id="bucket" clip-path="url(#clip-bucket)">
    <rect width="60" height="60" fill="#fff"/>
    <path id="Subtraction_10" data-name="Subtraction 10" d="M21.971,55.256a26.563,26.563,0,0,1-9.035-1.922A34.994,34.994,0,0,1,8.73,51.412L.209,20.84A1.887,1.887,0,0,1,0,20.1l0-.011c0-.02,0-.04,0-.061V20a1.681,1.681,0,0,1,.019-.253C.006,19.479,0,19.21,0,18.948a17.77,17.77,0,0,1,6.3-13.4A22.9,22.9,0,0,1,21.5,0,22.9,22.9,0,0,1,36.7,5.549a17.77,17.77,0,0,1,6.3,13.4c0,.266-.006.535-.019.8A1.707,1.707,0,0,1,43,20c0,.03,0,.06,0,.09V20.1a1.882,1.882,0,0,1-.194.715L34.486,51.412a28.054,28.054,0,0,1-3.843,1.922A23.6,23.6,0,0,1,21.971,55.256ZM21.5,17C11.3,17,3,18.346,3,20s8.3,3,18.5,3S40,21.655,40,20,31.7,17,21.5,17Zm.443-4.046c11.467,0,16.216,1.576,16.263,1.592a15.614,15.614,0,0,0-3.269-5.288c-2.231-2.413-6.3-5.288-12.994-5.288A18.285,18.285,0,0,0,8.579,9.257a17.135,17.135,0,0,0-3.64,5.288l.005,0C5.528,14.38,10.969,12.954,21.943,12.954Z" transform="translate(9 2)" fill="#2d2d2d"/>
  </g>
</svg>
