<svg xmlns="http://www.w3.org/2000/svg" xmlns:xlink="http://www.w3.org/1999/xlink" width="75" height="60" viewBox="0 0 75 60">
  <defs>
    <clipPath id="clip-concept_timer">
      <rect width="75" height="60"/>
    </clipPath>
  </defs>
  <g id="concept_timer" clip-path="url(#clip-concept_timer)">
    <rect width="75" height="60" fill="#fff"/>
    <g id="Group_139" data-name="Group 139">
      <g id="Group_131" data-name="Group 131">
        <path id="Subtraction_18" data-name="Subtraction 18" d="M255-1464H215a8.009,8.009,0,0,1-8-8v-40a8.009,8.009,0,0,1,8-8h40a8.009,8.009,0,0,1,8,8v40A8.009,8.009,0,0,1,255-1464Zm-38.772-52.091a5.006,5.006,0,0,0-5,5v38.182a5.006,5.006,0,0,0,5,5,5.006,5.006,0,0,0,5-5v-38.182A5.006,5.006,0,0,0,216.228-1516.091ZM242.5-1510a17.387,17.387,0,0,0-6.812,1.375,17.471,17.471,0,0,0-5.563,3.75,17.468,17.468,0,0,0-3.75,5.563A17.389,17.389,0,0,0,225-1492.5a17.387,17.387,0,0,0,1.375,6.811,17.462,17.462,0,0,0,3.75,5.563,17.441,17.441,0,0,0,5.563,3.75A17.389,17.389,0,0,0,242.5-1475a17.387,17.387,0,0,0,6.811-1.375,17.435,17.435,0,0,0,5.563-3.75,17.435,17.435,0,0,0,3.75-5.563A17.387,17.387,0,0,0,260-1492.5c0-.158,0-.321-.007-.5H260a17.45,17.45,0,0,0-5.286-12.038,17.372,17.372,0,0,0-12.19-4.962H242.5Zm0,31.875a14.391,14.391,0,0,1-14.375-14.375,14.3,14.3,0,0,1,4.051-9.994,14.3,14.3,0,0,1,9.823-4.373v3.155c.171-.008.348-.012.524-.012A11.23,11.23,0,0,1,253.767-1493h3.1c.006.167.009.335.009.5A14.391,14.391,0,0,1,242.5-1478.125Z" transform="translate(-205 1522)" fill="#2d2d2d"/>
        <g id="Group_129" data-name="Group 129" transform="translate(0 -3)">
          <circle id="Ellipse_27" data-name="Ellipse 27" cx="6.5" cy="6.5" r="6.5" transform="translate(60 8)" fill="#2d2d2d"/>
          <path id="Subtraction_14" data-name="Subtraction 14" d="M893.825,15.164a6.493,6.493,0,0,1-3.312-.906l8.906-8.906a6.5,6.5,0,0,1-5.594,9.812ZM888,11.555h0a6.435,6.435,0,0,1-.676-2.889,6.507,6.507,0,0,1,6.5-6.5,6.435,6.435,0,0,1,2.89.676L888,11.554Z" transform="translate(-827.325 42.836)" fill="#2d2d2d"/>
        </g>
      </g>
    </g>
  </g>
</svg>
