<svg xmlns="http://www.w3.org/2000/svg" xmlns:xlink="http://www.w3.org/1999/xlink" width="60" height="60" viewBox="0 0 60 60">
  <defs>
    <clipPath id="clip-concept">
      <rect width="60" height="60"/>
    </clipPath>
  </defs>
  <g id="concept" clip-path="url(#clip-concept)">
    <rect width="60" height="60" fill="#fff"/>
    <g id="Group_137" data-name="Group 137">
      <path id="Subtraction_15" data-name="Subtraction 15" d="M255-1284H215a8.009,8.009,0,0,1-8-8v-40a8.009,8.009,0,0,1,8-8h40a8.009,8.009,0,0,1,8,8v40A8.009,8.009,0,0,1,255-1284Zm4.094-12.812h0l-8.906,8.906a6.5,6.5,0,0,0,3.312.905,6.507,6.507,0,0,0,6.5-6.5,6.5,6.5,0,0,0-.906-3.312Zm-42.866-39.28a5.006,5.006,0,0,0-5,5v38.182a5.006,5.006,0,0,0,5,5,5.006,5.006,0,0,0,5-5v-38.182A5.006,5.006,0,0,0,216.228-1336.091ZM253.5-1300a6.507,6.507,0,0,0-6.5,6.5,6.423,6.423,0,0,0,.676,2.889l8.714-8.712A6.426,6.426,0,0,0,253.5-1300Zm0-37a6.507,6.507,0,0,0-6.5,6.5,6.507,6.507,0,0,0,6.5,6.5,6.507,6.507,0,0,0,6.5-6.5A6.507,6.507,0,0,0,253.5-1337Z" transform="translate(-205 1342)" fill="#2d2d2d"/>
    </g>
  </g>
</svg>
