<svg xmlns="http://www.w3.org/2000/svg" xmlns:xlink="http://www.w3.org/1999/xlink" width="60" height="60" viewBox="0 0 60 60">
  <defs>
    <clipPath id="clip-treasure">
      <rect width="60" height="60"/>
    </clipPath>
  </defs>
  <g id="treasure" clip-path="url(#clip-treasure)">
    <rect width="60" height="60" fill="#fff"/>
    <g id="Component_5_1" data-name="Component 5 – 1" transform="translate(4.337 1.866)">
      <path id="Subtraction_3" data-name="Subtraction 3" d="M233.543-523.352v-19.589l20.918-10.625v19.756l-20.916,10.458Zm-2.49,0h0l-28.387-14.94v-19.258l10.1,5.138v3.991l7.963,3.953.1-3.844,10.229,5.2v19.756Zm0-23.076h0L220.9-551.443l.038-1.529-8.176-3.878v1.387l-9.94-4.91v-.011a40.068,40.068,0,0,1,1.152-5.085,25.175,25.175,0,0,1,4.329-8.83c4.117-4.844,7.916-5.567,9.815-5.567a6.8,6.8,0,0,1,1.27.115c2.557.488,26.209,12.549,26.447,12.671a19.351,19.351,0,0,0-3.5,1.452,20.359,20.359,0,0,0-6.471,5.255,24.152,24.152,0,0,0-3.9,8.814,37.56,37.56,0,0,0-.91,5.13Zm2.811-.076v0c.014-.073,1.428-7.325,3.2-10.577a16.5,16.5,0,0,1,4.664-4.948,12.192,12.192,0,0,1,6.757-2.591,6.547,6.547,0,0,1,.729.04,3.946,3.946,0,0,1,2.7,1.579,8.608,8.608,0,0,1,1.416,2.963,17.879,17.879,0,0,1,.633,4.149l-20.1,9.386Z" transform="translate(-202.664 579.866)" fill="#2d2d2d"/>
    </g>
  </g>
</svg>
